<svg xmlns="http://www.w3.org/2000/svg" height="100" width="100" viewBox="0 0 841.995 1196.37" class="a">
<style>
  .a{
    clip-rule:evenodd;
    fill-rule:evenodd;
    stroke-linecap:round;
    stroke-linejoin:round;
    version:1.1;
  }
  .b{
    fill:#c8c8c8;
    opacity:1;
  }
  .c{
    fill:#565b5b;
    opacity:1;
    stroke-width:4;
    stroke:#fff;
  }
  .d{
    fill:#00c3ff;
    opacity:1;
    stroke-width:4;
    stroke:#fff;
  }
  .e{
    fill:#fb4600;
    opacity:1;
    stroke-width:4;
    stroke:#fff;
  }
  .f{
    fill:#fb4600;
    opacity:1;
    stroke-width:4.78;
    stroke:#fff;
  }
  .g{
    fill:#00c3ff;
    opacity:1;
    stroke-width:4.78;
    stroke:#fff;
  }
  .h{
    fill:#fff;
    opacity:1;
    stroke-linecap:round;
    stroke-width:7.04;
    stroke:#fff;
  }
  .i{
    fill:#fff;
    opacity:1;
    stroke-width:7.04;
    stroke:#fff;
  }
  .j{
    fill:none;
    opacity:1;
    stroke-width:14;
    stroke:#fff;
  }
  .k{
    fill:#565b5b;
    opacity:1;
    stroke-width:4.78;
    stroke:#fff;
  }
  .l{
    fill:#4cd100;
    opacity:1;
    stroke-width:7.04;
    stroke:#fff;
  }
  .m{
    fill:#fb4600;
    opacity:1;
  }
  .n{
    fill:#ff0086;
    opacity:1;
    stroke-width:2;
    stroke:#fffefe;
  }
  .o{
    fill:#ff0086;
    opacity:1;
    stroke-width:2;
    stroke:#fff;
  }
  .p{
    fill:#00b7ff;
    opacity:1;
    stroke-width:4;
    stroke:#fff;
  }
  .q{
    fill:#fff;
    opacity:1;
    stroke-width:7.04;
    stroke:#fffefe;
  }
  .r{
    fill:#00c0ff;
    opacity:1;
  }
  .s{
    fill:#fff;
    opacity:1;
    text-anchor:middle;
  }
  .t{
    fill:#565b5b;
    opacity:1;
    stroke-width:2;
    stroke:#fff;
  }
  .u{
    fill:none;
    opacity:1;
    stroke-width:7.04;
    stroke:#fff;
  }
  .v{
    fill:#fff;
    opacity:1;
  }
  .w{
    fill:#4cd100;
    opacity:1;
  }
  .x{
    fill:#ff0086;
    opacity:1;
  }
  .y{
    fill:#fff600;
    opacity:1;
  }
  .z{
    fill:#ff0086;
    opacity:1;
    stroke-linecap:round;
    stroke-width:14;
    stroke:#fff;
  }
  .A{
    opacity:1;
  }
  .B{
    fill:none;
    stroke-width:2;
    stroke:#fcfcfc;
  }
  .C{
    fill:#fcfcfc;
  }
  .D{
    fill:#00c3ff;
    opacity:1;
  }
  .E{
    fill:#565b5b;
    opacity:1;
    text-anchor:middle;
  }
  .F{
    fill:#565b5b;
    opacity:1;
    text-anchor:end;
  }
  .G{
    fill:#3c3c3c;
    opacity:1;
    text-anchor:end;
  }
</style>
  <metadata class="undefined"/>
  <defs class="undefined"/>
  <g id="Ebene 1" class="undefined">
    <path d="M0.539078-0.0000116542L842.534-0.0000116542 842.534 1196.37 0.539078 1196.37 0.539078-0.0000116542Z" class="b"/>
    <path d="M125.321 704.566C125.321 661.988 133.595 621.425 148.557 584.531 163.519 547.637 197.283 503.712 210.316 485.052 210.316 485.052 142.438 382.275 208.033 245.057 208.033 245.057 265.218 118.408 416.702 113.366 416.702 113.366 553.566 106.252 626.442 234.772 626.442 234.772 702.872 349.064 630.072 486.508 630.072 486.508 678.476 547.637 693.438 584.531 708.4 621.425 716.674 661.988 716.674 704.566 716.674 747.145 708.4 787.708 693.438 824.602 678.476 861.496 656.825 894.721 630.072 922.624 603.319 950.527 571.462 973.108 536.088 988.713 500.714 1004.32 461.822 1012.95 420.998 1012.95 380.173 1012.95 341.281 1004.32 305.907 988.713 270.533 973.108 238.676 950.527 211.923 922.624 185.169 894.721 163.519 861.496 148.557 824.602 133.595 787.708 125.321 747.145 125.321 704.566Z" class="c"/>
    <path d="M446.999 564.802L446.999 560.419C536.093 547.327 604.673 466.643 604.673 369.063 604.673 262.353 522.66 175.848 421.492 175.848 320.325 175.848 238.312 262.353 238.312 369.062 238.312 423.377 259.56 472.458 293.767 507.561" class="d"/>
    <path d="M285.874 370.613C285.874 290.907 346.645 226.293 421.61 226.293 496.574 226.293 557.345 290.907 557.345 370.613 557.345 450.319 496.574 514.933 421.61 514.933 346.645 514.933 285.874 450.319 285.874 370.613Z" class="e"/>
    <path d="M195.8 704.002C195.8 572.469 296.899 465.84 421.61 465.84 546.321 465.84 647.419 572.469 647.419 704.002 647.419 835.535 546.321 942.164 421.61 942.164 296.899 942.164 195.8 835.535 195.8 704.002Z" class="f"/>
    <path d="M244.989 705.598C244.989 600.297 325.533 514.933 424.89 514.933 524.246 514.933 604.79 600.297 604.79 705.598 604.79 810.899 524.246 896.262 424.89 896.262 325.533 896.262 244.989 810.899 244.989 705.598Z" class="g"/>
    <path d="M486.634 301.568L573.83 211.661" class="h"/>
    <path d="M560.13 703.704L645.095 704.038" class="i"/>
    <path d="M517.353 809.959L624.948 926.677" class="j"/>
    <path d="M421.258 851.463L420.776 939.941" class="i"/>
    <path d="M263.371 870.998L323.677 807.346" class="i"/>
    <path d="M198.088 703.751L283.414 703.882" class="i"/>
    <path d="M263.166 536.392L324.523 601.664" class="i"/>
    <path d="M421.591 274.952C371.373 274.952 330.669 317.885 330.669 370.853 330.669 413.661 357.488 450.941 395.839 462.863L396.932 463.204 445.975 458.587 448.803 458.084C481.557 451.419 512.512 413.662 512.512 370.853 512.512 317.885 471.808 274.952 421.591 274.952Z" class="c"/>
    <path d="M396.932 563.633L395.929 563.833C331.975 576.658 285.008 635.877 285.008 705.357 285.008 784.925 346.155 849.434 421.591 849.434 497.026 849.434 558.173 784.925 558.173 705.357 558.173 635.877 511.207 576.658 447.253 563.833L446.25 563.633 396.932 563.633Z" class="k"/>
    <path d="M396.612 443.636C396.612 443.636 395.301 432.01 421.73 432.01 447.081 432.01 445.437 444.38 445.437 444.38L447.081 581.779C447.081 581.779 447.081 596.311 421.624 596.311 395.301 596.311 395.994 582.755 395.994 582.755L396.612 443.636Z" class="l"/>
    <path d="M449.128 461.603C449.128 461.603 463.414 461.606 486.061 441.365L516.653 472.624C486.358 506.189 449.844 507.795 449.844 507.795L449.128 461.603Z" class="m"/>
    <path d="M357.123 441.337C373.817 458.232 393.02 464.02 393.02 464.02L392.994 465.424C362.947 469.681 339.039 479.742 321.928 488.614 304.76 497.516 294.817 504.699 294.817 504.699L310.215 488.829 325.613 472.96 341.312 457.138 357.123 441.337Z" class="b"/>
    <path d="M334.726 462.018L315.592 482.687C318.392 486.299 323.156 489.108 323.156 489.108 323.156 489.108 336.202 481.912 353.614 476.319 353.614 476.319 341.748 473.279 334.726 462.018Z" class="n"/>
    <path d="M450.234 557.529L450.243 562.08C491.207 570.904 518.227 600.137 518.227 600.137L579.224 536.083C561.486 517.701 547.853 508.886 547.853 508.886 499.694 553.075 450.234 557.529 450.234 557.529Z" class="b"/>
    <path d="M518.844 601.716L580.244 536.682" class="i"/>
    <path d="M545.824 547.908C530.733 529.332 518.967 528.057 518.967 528.057 518.967 528.057 503.253 538.181 494.849 542.295 494.849 542.295 512.886 544.384 528.857 564.007L524.199 568.935 550.559 568.545 549.626 543.931 545.824 547.908Z" class="o"/>
    <path d="M447.512 511.796C447.512 511.796 484.641 505.87 520.253 471.242L551.612 504.381C505.842 550.726 447.528 557.723 447.528 557.723L447.512 511.796Z" class="p"/>
    <path d="M293.18 233.363L356.792 301.014" class="i"/>
    <path d="M486.734 438.05L551.134 502.966" class="i"/>
    <path d="M293.822 504.699L324.115 473.208 355.461 439.278" class="q"/>
    <path d="M292.874 238.328L354.352 303.263C328.58 331.614 328.841 365.93 328.841 365.93L244.023 367.23C244.023 367.23 238.247 308.225 292.874 238.328Z" class="r"/>
    <text x="0" font-family="ArialMT" y="0" font-size="30" transform="matrix(0.750889 0 0 0.801381 540.946 635.01)" class="s">
      <tspan x="38.1907" y="27" textLength="16.6846" class="undefined">
        
1
      </tspan>
    </text>
    <text x="0" font-family="ArialMT" y="0" font-size="30" transform="matrix(0.750889 0 0 0.801381 536.384 756.724)" class="s">
      <tspan x="38.1907" y="27" textLength="16.6846" class="undefined">
        
2
      </tspan>
    </text>
    <text x="0" font-family="ArialMT" y="0" font-size="30" transform="matrix(0.750889 0 0 0.801381 459.088 844.199)" class="s">
      <tspan x="38.1907" y="27" textLength="16.6846" class="undefined">
        
3
      </tspan>
    </text>
    <text x="0" font-family="ArialMT" y="0" font-size="30" transform="matrix(0.750889 0 0 0.801381 334.139 847.126)" class="s">
      <tspan x="38.1907" y="27" textLength="16.6846" class="undefined">
        
4
      </tspan>
    </text>
    <text x="0" font-family="ArialMT" y="0" font-size="30" transform="matrix(0.750889 0 0 0.801381 248.622 751.079)" class="s">
      <tspan x="38.1907" y="27" textLength="16.6846" class="undefined">
        
5
      </tspan>
    </text>
    <text x="0" font-family="ArialMT" y="0" font-size="30" transform="matrix(0.750889 0 0 0.801381 245.239 630.927)" class="s">
      <tspan x="38.1907" y="27" textLength="16.6846" class="undefined">
        
6
      </tspan>
    </text>
    <text x="0" font-family="ArialMT" y="0" font-size="30" transform="matrix(0.750889 0 0 0.801381 540.006 420.059)" class="s">
      <tspan x="38.1907" y="27" textLength="33.3691" class="undefined">
        
10
      </tspan>
    </text>
    <text x="0" font-family="ArialMT" y="0" font-size="30" transform="matrix(0.750889 0 0 0.801381 541.674 294.242)" class="s">
      <tspan x="38.1907" y="27" textLength="31.1426" class="undefined">
        
11
      </tspan>
    </text>
    <text x="0" font-family="ArialMT" y="0" font-size="30" transform="matrix(0.750889 0 0 0.801381 457.676 197.414)" class="s">
      <tspan x="38.1907" y="27" textLength="33.3691" class="undefined">
        
12
      </tspan>
    </text>
    <text x="0" font-family="ArialMT" y="0" font-size="30" transform="matrix(0.750889 0 0 0.801381 334.45 198.957)" class="s">
      <tspan x="38.1907" y="27" textLength="33.3691" class="undefined">
        
13
      </tspan>
    </text>
    <text x="0" font-family="ArialMT" y="0" font-size="30" transform="matrix(0.750889 0 0 0.801381 257.638 303.587)" class="s">
      <tspan x="38.1907" y="27" textLength="33.3691" class="undefined">
        
14
      </tspan>
    </text>
    <text x="0" font-family="ArialMT" y="0" font-size="30" transform="matrix(0.750889 0 0 0.801381 325.321 543.589)" class="s">
      <tspan x="38.1907" y="27" textLength="16.6846" class="undefined">
        
7
      </tspan>
    </text>
    <text x="0" font-family="ArialMT" y="0" font-size="30" transform="matrix(2.17805 0 0 4.48509 338.237 458.334)" class="s">
      <tspan x="38.1907" y="27" textLength="16.6846" class="undefined">
        
8
      </tspan>
    </text>
    <text x="0" font-family="ArialMT" y="0" font-size="30" transform="matrix(0.750889 0 0 0.801381 466.354 504.36)" class="s">
      <tspan x="38.1907" y="27" textLength="16.6846" class="undefined">
        
9
      </tspan>
    </text>
    <text x="0" font-family="ArialMT" y="0" font-size="30" transform="matrix(0.750889 0 0 0.801381 580.896 611.794)" class="s">
      <tspan x="38.1907" y="27" textLength="33.3691" class="undefined">
        
16
      </tspan>
    </text>
    <text x="0" font-family="ArialMT" y="0" font-size="30" transform="matrix(0.750889 0 0 0.801381 582.826 773.286)" class="s">
      <tspan x="38.1907" y="27" textLength="33.3691" class="undefined">
        
17
      </tspan>
    </text>
    <text x="0" font-family="ArialMT" y="0" font-size="30" transform="matrix(0.750889 0 0 0.801381 472.519 889.78)" class="s">
      <tspan x="38.1907" y="27" textLength="33.3691" class="undefined">
        
18
      </tspan>
    </text>
    <text x="0" font-family="ArialMT" y="0" font-size="30" transform="matrix(0.750889 0 0 0.801381 308.862 885.338)" class="s">
      <tspan x="38.1907" y="27" textLength="33.3691" class="undefined">
        
19
      </tspan>
    </text>
    <text x="0" font-family="ArialMT" y="0" font-size="30" transform="matrix(0.750889 0 0 0.801381 209.013 776.181)" class="s">
      <tspan x="38.1907" y="27" textLength="33.3691" class="undefined">
        
20
      </tspan>
    </text>
    <text x="0" font-family="ArialMT" y="0" font-size="30" transform="matrix(0.750889 0 0 0.801381 207.749 611.494)" class="s">
      <tspan x="38.1907" y="27" textLength="33.3691" class="undefined">
        
21
      </tspan>
    </text>
    <text x="0" font-family="ArialMT" y="0" font-size="30" transform="matrix(0.750889 0 0 0.801381 310.531 495.286)" class="s">
      <tspan x="38.1907" y="27" textLength="33.3691" class="undefined">
        
22
      </tspan>
    </text>
    <text x="0" font-family="ArialMT" y="0" font-size="30" transform="matrix(0.750889 0 0 0.801381 446.694 462.034)" class="s">
      <tspan x="38.1907" y="27" textLength="33.3691" class="undefined">
        
24
      </tspan>
    </text>
    <text x="0" font-family="ArialMT" y="0" font-size="30" transform="matrix(0.750889 0 0 0.801381 497.418 399.149)" class="s">
      <tspan x="38.1907" y="27" textLength="33.3691" class="undefined">
        
25
      </tspan>
    </text>
    <text x="0" font-family="ArialMT" y="0" font-size="30" transform="matrix(0.750889 0 0 0.801381 497.147 310.344)" class="s">
      <tspan x="38.1907" y="27" textLength="33.3691" class="undefined">
        
26
      </tspan>
    </text>
    <text x="0" font-family="ArialMT" y="0" font-size="30" transform="matrix(0.750889 0 0 0.801381 437.24 247.105)" class="s">
      <tspan x="38.1907" y="27" textLength="33.3691" class="undefined">
        
27
      </tspan>
    </text>
    <text x="0" font-family="ArialMT" y="0" font-size="30" transform="matrix(0.750889 0 0 0.801381 351.935 246.727)" class="s">
      <tspan x="38.1907" y="27" textLength="33.3691" class="undefined">
        
28
      </tspan>
    </text>
    <path d="M403.486 476.693L439.343 476.521" class="t"/>
    <text x="0" font-family="ArialMT" y="0" font-size="30" transform="matrix(0.750889 0 0 0.801381 391.981 446.484)" class="s">
      <tspan x="38.1907" y="27" textLength="33.3691" class="undefined">
        
23
      </tspan>
    </text>
    <text x="0" font-family="Arial-BoldItalicMT" y="0" font-size="20" transform="matrix(1 0 0 1 286.315 749.786)" class="s">
      <tspan x="142.098" y="18" textLength="142.256" class="undefined">
        
Development &#x2F;

      </tspan>
      <tspan x="139.32" y="41" textLength="123.33" class="undefined">
        
BETA testing
      </tspan>
    </text>
    <path d="M514.019 368.248L602.772 368.497" class="u"/>
    <path d="M328.845 369.349L240.213 369.29" class="u"/>
    <text x="0" font-family="Arial-BoldItalicMT" y="0" font-size="20" transform="matrix(1 0 0 1 332.82 398.071)" class="s">
      <tspan x="93.8652" y="18" textLength="117.783" class="undefined">
        
Stabilization
      </tspan>
    </text>
    <path d="M421.844 345.186C412.346 345.186 404.09 351.075 400.875 359.592L396.094 354.842 400.335 366.019 407.688 356.467 402.292 359.863C405.523 352.546 413.43 346.873 421.844 346.874 433.318 346.874 442.625 355.977 442.625 367.217 442.625 378.458 433.318 387.592 421.844 387.592 410.37 387.592 401.097 379.812 401.097 368.571L400.213 368.571 399.41 368.571C399.41 380.741 409.454 389.248 421.844 389.249 434.233 389.249 444.312 379.387 444.312 367.217 444.312 355.047 434.233 345.186 421.844 345.186Z" class="v"/>
    <path d="M422.298 345.186C412.801 345.186 404.545 351.075 401.33 359.592L396.548 354.842 400.79 366.019 408.142 356.467 402.747 359.863C405.978 352.546 413.884 346.873 422.298 346.874 433.773 346.874 443.08 355.977 443.08 367.217 443.08 378.458 433.773 387.592 422.298 387.592 410.824 387.592 401.552 379.812 401.552 368.571L400.667 368.571 399.864 368.571C399.864 380.741 409.909 389.248 422.298 389.249 434.688 389.249 444.767 379.387 444.767 367.217 444.767 355.047 434.688 345.186 422.298 345.186Z" class="v"/>
    <path d="M425.771 667.469C405.817 667.469 390.067 682.155 390.067 702.162L391.067 702.162 392.067 702.162C392.067 683.259 406.923 669.469 425.771 669.469 444.62 669.469 459.928 684.816 459.928 703.719 459.928 722.622 444.62 737.938 425.771 737.938 410.481 737.938 397.404 727.718 393.178 713.407L398.99 716.938 390.857 705.005 385.053 718.313 390.959 712.907C395.077 728.62 409.203 739.938 425.771 739.938 445.726 739.938 461.928 723.726 461.928 703.719 461.928 683.713 445.726 667.469 425.771 667.469Z" class="v"/>
    <path d="M597.376 886.844L606.25 878.099 562.448 832.275C554.968 840.991 555.129 840.638 555.129 840.638L597.376 886.844Z" class="w"/>
    <path d="M561.481 908.023C561.481 902.252 566.453 897.573 572.585 897.573 578.718 897.573 583.689 902.252 583.689 908.023 583.689 913.795 578.718 918.473 572.585 918.473 566.453 918.473 561.481 913.795 561.481 908.023Z" class="m"/>
    <path d="M383.046 299.54C383.046 293.769 388.018 289.09 394.15 289.09 400.283 289.09 405.254 293.769 405.254 299.54 405.254 305.312 400.283 309.99 394.15 309.99 388.018 309.99 383.046 305.312 383.046 299.54Z" class="x"/>
    <path d="M538.435 205.734C538.435 199.963 543.406 195.284 549.539 195.284 555.672 195.284 560.643 199.963 560.643 205.734 560.643 211.506 555.672 216.184 549.539 216.184 543.406 216.184 538.435 211.506 538.435 205.734Z" class="y"/>
    <path d="M413.656 114.873L413.656 304.117C413.656 307.556 416.79 310.344 420.656 310.344 424.522 310.344 427.656 307.556 427.656 304.117L427.656 114.873 413.656 114.873Z" class="v"/>
    <path d="M421.066 600.137L421.337 622.486" class="z"/>
    <g class="A">
      <g class="undefined">
        <path d="M544.686 955.49C562.822 948.794 591.331 927.557 601.739 910.617" class="B"/>
        <path d="M547.895 947.239L542.89 955.284 542.244 956.322 543.389 956.749 552.266 960.062C552.784 960.256 553.36 959.993 553.553 959.475 553.746 958.958 553.483 958.382 552.966 958.189L544.089 954.876 544.588 956.341 549.594 948.296C549.885 947.827 549.742 947.21 549.273 946.918 548.804 946.626 548.187 946.77 547.895 947.239Z" class="C"/>
      </g>
    </g>
    <g class="A">
      <g class="undefined">
        <path d="M473.38 612.237C457.518 628.673 422.294 633.881 416.93 626.462" class="B"/>
        <path d="M474.622 621.003L475.046 611.537 475.101 610.316 473.893 610.504 464.531 611.963C463.986 612.048 463.612 612.559 463.697 613.105 463.782 613.65 464.293 614.024 464.839 613.939L474.201 612.48 473.048 611.448 472.624 620.913C472.599 621.465 473.026 621.932 473.578 621.957 474.13 621.982 474.597 621.555 474.622 621.003Z" class="C"/>
      </g>
    </g>
    <text x="0" font-family="Arial-BoldMT" y="0" font-size="16" transform="matrix(0.773228 -0.634128 0.634128 0.773228 551.199 958.238)" class="s">
      <tspan x="35.6618" y="14" textLength="60.4453" class="undefined">
        
Monday
      </tspan>
    </text>
    <text x="0" font-family="Arial-BoldMT" y="0" font-size="16" transform="matrix(0.999995 -0.00328476 0.00328476 0.999995 410.38 632.838)" class="s">
      <tspan x="35.6618" y="14" textLength="60.4453" class="undefined">
        
Monday
      </tspan>
    </text>
    <text x="0" font-family="Arial-BoldMT" y="0" font-size="16" transform="matrix(0.984531 -0.175212 0.175212 0.984531 345.834 128.791)" class="s">
      <tspan x="35.6618" y="14" textLength="60.4453" class="undefined">
        
Monday
      </tspan>
    </text>
    <g class="A">
      <g class="undefined">
        <path d="M346.955 153.565C352.853 150.281 371.603 141.897 414.421 138.06" class="B"/>
        <path d="M348.233 144.804L345.159 153.767 344.763 154.923 345.975 155.083 355.369 156.321C355.916 156.393 356.418 156.008 356.491 155.46 356.563 154.913 356.177 154.41 355.63 154.338L346.236 153.1 347.051 154.416 350.125 145.453C350.304 144.931 350.026 144.362 349.504 144.183 348.981 144.004 348.412 144.282 348.233 144.804Z" class="C"/>
      </g>
    </g>
    <path d="M236.049 439.56L239.625 450.436 255.303 444.823 250.962 434.511 236.049 439.56Z" class="m"/>
    <path d="M240.367 372.547L328.976 372.782C330.122 413.268 353.735 437.22 353.735 437.22L291.928 502.821C291.928 502.821 239.276 450.005 240.367 372.547Z" class="w"/>
    <text x="0" font-family="ArialMT" y="0" font-size="40" transform="matrix(1.56886 0 0 2.42331 232.383 370.187)" class="s">
      <tspan x="38.1907" y="36" textLength="44.4922" class="undefined">
        
15
      </tspan>
    </text>
    <path d="M492.276 353.784L492.29 364.89 555.294 364.893C555.132 359.395 554.497 353.867 554.497 353.867L492.276 353.784Z" class="w"/>
    <path d="M432.498 611.649C432.498 605.877 437.469 601.198 443.602 601.198 449.735 601.198 454.706 605.877 454.706 611.649 454.706 617.42 449.735 622.099 443.602 622.099 437.469 622.099 432.498 617.42 432.498 611.649Z" class="D"/>
    <text x="0" font-family="ArialMT" y="0" font-size="26" transform="matrix(1 0 0 1 189.079 1049.45)" class="E">
      <tspan x="243.419" y="24" textLength="468.292" class="undefined">
        
Development8 - Version: 1.0 (20180312)
      </tspan>
    </text>
    <text x="0" font-family="ArialMT" y="0" font-size="15" transform="matrix(1 0 0 1 394.885 1130.81)" class="F">
      <tspan x="397.628" y="14" textLength="312.063" class="undefined">
        
Author: Philipp Bonin (mail@development8.de)
      </tspan>
    </text>
    <text x="0" font-family="ArialMT" y="0" font-size="20" transform="matrix(1 0 0 1 394.885 1106.82)" class="G">
      <tspan x="397.628" y="18" textLength="153.447" class="undefined">
        
development8.de
      </tspan>
    </text>
  </g>
</svg>
