<svg xmlns="http://www.w3.org/2000/svg" height="100" width="100" viewBox="0 0 2300 3420" stroke-linejoin="round">
    <path d="M1148.5 35.2C634.8 35.2 218.5 442.6 218.5 945 218.5 1114 265.6 1272.2 347.7 1407.7 152.6 1617.4 32.5 1903.4 32.5 2218.7 32.5 2861.9 532.1 3383.2 1148.5 3383.2 1764.8 3383.2 2264.5 2861.9 2264.5 2218.7 2264.5 1903.4 2144.3 1617.4 1949.3 1407.7 2031.3 1272.2 2078.5 1114 2078.5 945 2078.5 442.6 1662.1 35.2 1148.5 35.2Z" style="fill:#565b5b;stroke-width:20;stroke:#fff"/>
    <path d="M1148.3 215.2C949.3 215.3 769.1 296 638.8 426.5L740.7 528.2C844.9 423.8 989.1 359.1 1148.3 359.1L1148.3 215.2Z" class="a"/>
    <path d="M1148.4 215.2L1148.4 359.1C1307.8 359.1 1452 423.9 1556.3 528.5L1658.1 426.7C1527.7 296.1 1347.5 215.3 1148.4 215.2Z" class="a"/>
    <path d="M1148.3 359.2C989.1 359.3 845 423.9 740.8 528.3L842.6 629.9C920.8 551.6 1028.9 503.1 1148.3 503.1L1148.3 359.2Z" class="b"/>
    <path d="M1148.4 359.2L1148.4 503.1C1268 503.1 1376.2 551.8 1454.5 630.3L1556.2 528.6C1452 424 1307.7 359.3 1148.4 359.2Z" class="b"/>
    <path d="M1658.1 426.8L1556.4 528.6C1660.2 632.8 1724.4 776.4 1724.4 935.1L1868.3 935.1C1868.3 736.7 1788 557 1658.1 426.8Z" class="a"/>
    <path d="M1556.3 528.6L1454.5 630.4C1532.3 708.5 1580.4 816.2 1580.4 935.1L1724.3 935.1C1724.3 776.5 1660.1 632.8 1556.3 528.6Z" class="b"/>
    <path d="M428.4 935.2C428.4 1134.4 509.2 1314.6 639.9 1444.9L843.6 1241.4C738.9 1137.1 715.9 1012.9 716.3 935.1L428.4 935.2Z" style="fill:#4cd100;stroke-width:9;stroke:#fff"/>
    <path d="M1580.4 935.2C1580.4 1054.4 1532.1 1162.3 1454.1 1240.4L1555.9 1342.1C1659.9 1237.9 1724.3 1094.1 1724.3 935.2L1580.4 935.2Z" class="b"/>
    <path d="M1724.4 935.2C1724.4 1094.1 1660 1238 1556 1342.2L1657.8 1443.9C1787.9 1313.6 1868.3 1133.8 1868.3 935.2L1724.4 935.2Z" class="a"/>
    <path d="M511.5 1631.5C349 1794.3 248.5 2019 248.5 2267.2L392.3 2267.2C392.4 2058.7 476.8 1869.9 613.3 1733.1L511.5 1631.5Z" class="b"/>
    <path d="M1785.4 1631.5L1683.6 1733.3C1820 1870 1904.4 2058.7 1904.5 2267.2L2048.3 2267.2C2048.3 2019 1947.9 1794.3 1785.4 1631.5Z" class="b"/>
    <path d="M613.4 1733.2C476.9 1870 392.5 2058.7 392.5 2267.2L536.3 2267.2C536.4 2098.4 604.7 1945.6 715.2 1834.9L613.4 1733.2Z" class="a"/>
    <path d="M1683.5 1733.3L1581.8 1835.1C1692.2 1945.8 1760.4 2098.5 1760.5 2267.2L1904.3 2267.2C1904.3 2058.8 1820 1870.1 1683.5 1733.3Z" class="a"/>
    <path d="M248.5 2267.3C248.5 2516.2 349.5 2741.4 512.8 2904.3L614.5 2802.5C477.3 2665.7 392.4 2476.4 392.3 2267.3L248.5 2267.3Z" class="b"/>
    <path d="M392.5 2267.3C392.5 2476.4 477.4 2665.6 614.6 2802.5L716.3 2700.7C605.2 2589.9 536.4 2436.6 536.3 2267.3L392.5 2267.3Z" class="a"/>
    <path d="M1760.5 2267.3C1760.4 2436.1 1692.1 2588.9 1581.6 2699.6L1683.4 2801.3C1819.9 2664.5 1904.3 2475.8 1904.3 2267.3L1760.5 2267.3Z" class="a"/>
    <path d="M1904.5 2267.3C1904.4 2475.8 1820 2664.6 1683.5 2801.3L1785.3 2903C1947.8 2740.2 2048.3 2515.5 2048.3 2267.3L1904.5 2267.3Z" class="b"/>
    <path d="M1581.5 2699.7C1470.7 2810.6 1317.6 2879.3 1148.5 2879.3L1148.5 3023.2C1357.4 3023.2 1546.5 2938.4 1683.3 2801.3L1581.5 2699.7Z" class="a"/>
    <path d="M716.4 2700.8L614.7 2802.5C751.4 2938.8 940 3023.2 1148.3 3023.2L1148.3 2879.3C979.7 2879.3 827.1 2811.1 716.4 2700.8Z" class="a"/>
    <path d="M1683.4 2801.4C1546.6 2938.5 1357.4 3023.3 1148.5 3023.3L1148.5 3167.2C1397.2 3167.2 1622.4 3066.3 1785.3 2903.1L1683.4 2801.4Z" class="b"/>
    <path d="M614.6 2802.6L512.8 2904.4C675.6 3066.8 900.3 3167.2 1148.3 3167.2L1148.3 3023.3C940 3023.3 751.4 2938.9 614.6 2802.6Z" class="b"/>
    <path d="M1588.6 2692.6L1574.4 2706.8 1924.9 3055.1 1939 3040.9 1588.6 2692.6Z" class="c"/>
    <path d="M843.6 1241.4L741.8 1343.1C846 1446.9 989.6 1511.1 1148.3 1511.1L1148.3 1367.2C1029.4 1367.2 921.7 1319.1 843.6 1241.4ZM741.7 1343.2L640 1445C770.2 1574.8 949.8 1655.1 1148.3 1655.1L1148.3 1511.2C989.6 1511.2 845.9 1447 741.7 1343.2ZM1148.5 1367.3L1148.5 1511.2C1357.5 1511.2 1546.7 1596.1 1683.5 1733.2L1785.3 1631.4C1622.4 1468.2 1397.2 1367.3 1148.5 1367.3ZM1148.5 1511.3L1148.5 1655.2C1317.7 1655.2 1470.9 1724 1581.7 1835L1683.5 1733.2C1546.6 1596.1 1357.5 1511.3 1148.5 1511.3Z" style="fill:#c8c8c8;stroke-width:9;stroke:#fff"/>
    <path d="M1138.4 35.2L1138.4 601.1C1138.4 606.7 1142.9 611.2 1148.4 611.2 1153.9 611.2 1158.4 606.7 1158.4 601.1L1158.4 35.2 1138.4 35.2Z" class="c"/>
    <path d="M1139.2 1836.8L1139.2 1933.8C1139.2 1939.2 1143.8 1943.6 1149.4 1943.6 1155 1943.6 1159.6 1939.2 1159.6 1933.8L1159.6 1836.8 1139.2 1836.8Z" class="c"/>
    <path d="M638.8 426.6C508.8 556.8 428.4 736.6 428.4 935.1L716.3 935.1C715.6 863.8 738.5 734.2 842.5 630L638.8 426.6Z" class="a"/>
    <path d="M1778.1 1624.9L1519.7 1880.2C1515.5 1884.3 1515.5 1891 1519.6 1895.1 1523.7 1899.2 1530.4 1899.2 1534.5 1895.1L1792.9 1639.8 1778.1 1624.9Z" class="c"/>
    <path d="M-39.5-0.8L-3.5-0.8 -3.5-0.8 -39.5-0.8Z" fill="#363434"/>
    <path d="M1724.2 349.6C1721.6 349.6 1719.1 350.6 1717.1 352.6L1448.1 622 1462.2 636.4 1731.3 366.7C1735.2 362.8 1735.2 356.5 1731.3 352.5 1729.3 350.6 1726.7 349.6 1724.2 349.6Z" class="c"/>
    <path d="M794.4 1294.2L692.3 1396C692.3 1396 865.7 1583.9 1148.5 1583.2 1148.5 1583.2 1377.9 1574.2 1586.4 1741.6L1528.6 1784.1 1686.2 1735.3 1703.3 1558.7 1674.9 1627.5C1429.7 1424.6 1148.5 1439.2 1148.5 1439.2 923.4 1435.8 794.4 1294.2 794.4 1294.2Z" style="fill:#f06;stroke-linejoin:round;stroke-width:4;stroke:#fff"/>
    <path d="M1148.3 1367.3C899.6 1367.3 674.4 1468.2 511.6 1631.4L613.4 1733.1C750.3 1596 939.4 1511.2 1148.3 1511.2L1148.3 1367.3Z" class="b"/>
    <path d="M1148.3 1511.3C939.4 1511.3 750.3 1596.1 613.5 1733.1L715.3 1834.8C826.1 1723.8 979.2 1655.2 1148.3 1655.2L1148.3 1511.3Z" class="a"/>
    <path d="M1555.9 1342.2C1451.7 1446.6 1307.6 1511.2 1148.4 1511.2L1148.4 1655.1C1347.4 1655.1 1527.5 1574.4 1657.8 1443.9L1555.9 1342.2Z" class="a"/>
    <path d="M1454 1240.5C1375.8 1318.8 1267.8 1367.2 1148.4 1367.2L1148.4 1511.1C1307.6 1511.1 1451.6 1446.5 1555.8 1342.1L1454 1240.5Z" class="b"/>
    <path d="M1044.2 1799.9C1044.2 1799.9 1056.4 1835.8 1152 1835.8 1244.5 1835.8 1259.8 1799.9 1259.8 1799.9L1259.8 1333.8C1259.8 1333.8 1243.8 1296 1151.7 1296 1055.7 1296 1044.2 1333.8 1044.2 1333.8L1044.2 1799.9Z" style="fill:#4cd100;stroke-width:20;stroke:#fff"/>
    <path d="M1743.6 2997.7C1743.6 2977.9 1759.7 2961.9 1779.7 2961.9 1799.6 2961.9 1815.8 2977.9 1815.8 2997.7 1815.8 3017.5 1799.6 3033.6 1779.7 3033.6 1759.7 3033.6 1743.6 3017.5 1743.6 2997.7Z" class="d"/>
    <path d="M1286.7 1784.1C1286.7 1764.3 1302.9 1748.3 1323 1748.3 1343 1748.3 1359.2 1764.3 1359.2 1784.1 1359.2 1803.9 1343 1820 1323 1820 1302.9 1820 1286.7 1803.9 1286.7 1784.1Z" fill="#00c3ff"/>
    <path d="M1040.5 575.3C1040.5 555.3 1056.6 539.2 1076.5 539.2 1096.3 539.2 1112.5 555.3 1112.5 575.3 1112.5 595.2 1096.3 611.3 1076.5 611.3 1056.6 611.3 1040.5 595.2 1040.5 575.3Z" fill="#f06"/>
    <path d="M1611.3 331.6C1611.3 311.8 1627.5 295.6 1647.3 295.6 1667.2 295.6 1683.3 311.8 1683.3 331.6 1683.3 351.5 1667.2 367.6 1647.3 367.6 1627.5 367.6 1611.3 351.5 1611.3 331.6Z" fill="#ffe000"/>
    <path d="M575 1452L609 1418.6C609 1418.6 621.3 1432.5 633.7 1444.8L599.9 1478 575 1452Z" class="d"/>
    <path d="M1583.3 899.2C1583.3 899.2 1584.7 914.6 1584.8 930.8L1719.9 930.7C1719.9 917.6 1718.8 899.3 1718.8 899.3L1583.3 899.2Z" class="e"/>
    <path d="M1715.2 2774.1C1715.2 2774.1 1704.9 2785.8 1693.7 2797.1L1789.6 2892.4C1799.2 2882.7 1811.1 2869.7 1811.1 2869.7L1715.2 2774.1Z" class="e"/>
    <text font-family="Arial-BoldMT" font-size="90" transform="matrix(1.00615 -0.00481404 0.00475322 0.993436 1734.01 1948.89)" class="f">
      <tspan x="47.8" y="81" textLength="50.0537">
        
1
      </tspan>
    </text>
    <text font-family="Arial-BoldMT" font-size="90" transform="matrix(1.00616 -0.00222342 0.00219533 0.993445 1729.83 2473.49)" class="f">
      <tspan x="47.8" y="81" textLength="50.0537">
        
2
      </tspan>
    </text>
    <text font-family="Arial-BoldMT" font-size="90" transform="matrix(1.00616 0 0 0.993447 1359.19 2842.69)" class="f">
      <tspan x="47.8" y="81" textLength="50.0537">
        
3
      </tspan>
    </text>
    <text font-family="Arial-BoldMT" font-size="90" transform="matrix(1.00616 0 0 0.993447 842.523 2842.69)" class="f">
      <tspan x="47.8" y="81" textLength="50.0537">
        
4
      </tspan>
    </text>
    <text font-family="Arial-BoldMT" font-size="90" transform="matrix(1.00616 -0.000672764 0.000664263 0.993447 484.214 2472.42)" class="f">
      <tspan x="37.2" y="81" textLength="50.0537">
        
5
      </tspan>
    </text>
    <text font-family="Arial-BoldMT" font-size="90" transform="matrix(1.00572 0.0296058 -0.0292318 0.993017 468.451 1948.42)" class="f">
      <tspan x="47.8" y="81" textLength="50.0537">
        
6
      </tspan>
    </text>
    <text font-family="Arial-BoldMT" font-size="90" transform="matrix(1.00616 0 0 0.993447 842.523 1574.83)" class="f">
      <tspan x="47.8" y="81" textLength="50.0537">
        
7
      </tspan>
    </text>
    <text font-family="Arial-BoldMT" font-size="90" transform="matrix(1.00616 0.00227976 -0.00225096 0.993444 1808.17 1889.59)" class="f">
      <tspan x="101.5" y="81" textLength="100.107">
        
16
      </tspan>
    </text>
    <text font-family="Arial-BoldMT" font-size="90" transform="matrix(1.00616 0.0000669506 -0.0000661046 0.993447 1804.65 2533.6)" class="f">
      <tspan x="101.5" y="81" textLength="100.107">
        
17
      </tspan>
    </text>
    <text font-family="Arial-BoldMT" font-size="90" transform="matrix(1.00616 -0.000591106 0.000583638 0.993447 283.922 2530.18)" class="f">
      <tspan x="101.5" y="81" textLength="100.107">
        
20
      </tspan>
    </text>
    <text font-family="Arial-BoldMT" font-size="90" transform="matrix(1.00615 0.00401645 -0.0039657 0.993439 1359.65 2979.26)" class="f">
      <tspan x="101.5" y="81" textLength="100.107">
        
18
      </tspan>
    </text>
    <text font-family="Arial-BoldMT" font-size="90" transform="matrix(1.00615 0.00401645 -0.0039657 0.993439 728.045 2979.26)" class="f">
      <tspan x="101.5" y="81" textLength="100.107">
        
19
      </tspan>
    </text>
    <text font-family="Arial-BoldMT" font-size="90" transform="matrix(1.00616 0.000444645 -0.000439027 0.993447 283.671 1888.59)" class="f">
      <tspan x="101.5" y="81" textLength="100.107">
        
21
      </tspan>
    </text>
    <text font-family="Arial-BoldMT" font-size="90" transform="matrix(1.00615 0.00401645 -0.0039657 0.993439 732.306 1451.16)" class="f">
      <tspan x="101.5" y="81" textLength="100.107">
        
22
      </tspan>
    </text>
    <text font-family="Arial-BoldMT" font-size="90" transform="matrix(1.00615 0.00401645 -0.0039657 0.993439 1047.39 1375.9)" class="f">
      <tspan x="101.6" y="81" textLength="100.107">
        
23
      </tspan>
    </text>
    <path d="M1080 1512.7L1224.3 1512.7" class="g"/>
    <text font-family="Arial-BoldMT" font-size="90" transform="matrix(1.00615 0.00401645 -0.0039657 0.993439 1264.9 1341.72)" class="f">
      <tspan x="101.5" y="81" textLength="100.107">
        
24
      </tspan>
    </text>
    <text font-family="Arial-BoldMT" font-size="90" transform="matrix(1.00615 0.00401645 -0.0039657 0.993439 1516.39 1070.23)" class="f">
      <tspan x="101.5" y="81" textLength="100.107">
        
25
      </tspan>
    </text>
    <text font-family="Arial-BoldMT" font-size="90" transform="matrix(1.00615 0.00401645 -0.0039657 0.993439 1516.51 693.139)" class="f">
      <tspan x="101.5" y="81" textLength="100.107">
        
26
      </tspan>
    </text>
    <text font-family="Arial-BoldMT" font-size="90" transform="matrix(1.00615 0.00401645 -0.0039657 0.993439 1264.9 426.028)" class="f">
      <tspan x="101.5" y="81" textLength="100.107">
        
27
      </tspan>
    </text>
    <text font-family="Arial-BoldMT" font-size="90" transform="matrix(1.00615 0.00401645 -0.0039657 0.993439 852.88 426.028)" class="f">
      <tspan x="101.5" y="81" textLength="100.107">
        
28
      </tspan>
    </text>
    <text font-family="Arial-BoldMT" font-size="90" transform="matrix(1.00615 0.00401645 -0.0039657 0.993439 1367.1 1447.15)" class="f">
      <tspan x="101.5" y="81" textLength="50.0537">
        
9
      </tspan>
    </text>
    <text font-family="Arial-BoldMT" font-size="90" transform="matrix(1.00615 0.00401645 -0.0039657 0.993439 1641.06 1130.98)" class="f">
      <tspan x="101.5" y="81" textLength="100.107">
        
10
      </tspan>
    </text>
    <text font-family="Arial-BoldMT" font-size="90" transform="matrix(1.00615 0.00401645 -0.0039657 0.993439 1636.45 638.074)" class="f">
      <tspan x="101.5" y="81" textLength="95.1416">
        
11
      </tspan>
    </text>
    <text font-family="Arial-BoldMT" font-size="90" transform="matrix(1.00615 0.00401645 -0.0039657 0.993439 1313.97 283.03)" class="f">
      <tspan x="101.5" y="81" textLength="100.107">
        
12
      </tspan>
    </text>
    <text font-family="Arial-BoldMT" font-size="90" transform="matrix(1.00615 0.00401645 -0.0039657 0.993439 792.318 283.03)" class="f">
      <tspan x="101.5" y="81" textLength="100.107">
        
13
      </tspan>
    </text>
    <text font-family="Arial-BoldMT" font-size="90" transform="matrix(1.00615 0.00401645 -0.0039657 0.993439 513.569 663.962)" class="f">
      <tspan x="101.5" y="81" textLength="100.107">
        
14
      </tspan>
    </text>
    <text font-family="ArialMT" font-size="200" transform="matrix(1.07773 0 0 1.60928 469.445 982.947)" class="f">
      <tspan x="123.2" y="181" textLength="222.461">
        
15
      </tspan>
    </text>
    <text font-family="ArialMT" font-size="200" transform="matrix(1.05984 0 0 1.79962 1017.68 1470.58)" class="f">
      <tspan x="123.2" y="181" textLength="111.23">
        
8
      </tspan>
    </text>
    <text font-family="Arial-BoldItalicMT" font-size="50" transform="matrix(1 0 0 1 695.866 2556.47)" class="f">
      <tspan x="457.8" y="45" textLength="355.64">
        
Development &#x2F;

      </tspan>
      <tspan x="450.8" y="103" textLength="308.325">
        
BETA testing
      </tspan>
    </text>
    <text font-family="Arial-BoldItalicMT" font-size="50" transform="matrix(1 0 0 1 920.464 1151.11)" class="f">
      <tspan x="229.6" y="45" textLength="294.458">
        
Stabilization
      </tspan>
    </text>
    <text font-family="Arial-BoldMT" font-size="50" transform="matrix(0.999943 -0.0106595 0.0106595 0.999943 1165.48 1886.61)" class="c">
      <tspan y="45" textLength="188.892">
        
Monday
      </tspan>
    </text>
    <text font-family="Arial-BoldMT" font-size="50" transform="matrix(0.994262 -0.10697 0.10697 0.994262 827.198 77.873)" class="f">
      <tspan x="208.8" y="45" textLength="188.892">
        
Monday
      </tspan>
    </text>
    <text font-family="Arial-BoldMT" font-size="50" transform="matrix(0.754451 -0.656357 0.656357 0.754451 1597.89 3245.67)" class="f">
      <tspan x="262.6" y="45" textLength="188.892">
        
Monday
      </tspan>
    </text>
        <path d="M1401.9 1743.3C1402.3 1777.2 1408.8 1879.4 1156.4 1879.4" class="g"/>
        <path d="M1426.1 1769.1L1405.7 1737.2 1403.1 1733.1 1399.6 1736.5 1372.3 1762.8C1370.7 1764.3 1370.7 1766.8 1372.2 1768.4 1373.7 1770 1376.3 1770.1 1377.8 1768.5L1405.1 1742.2 1399 1741.5 1419.4 1773.4C1420.5 1775.3 1423 1775.8 1424.9 1774.7 1426.7 1773.5 1427.3 1771 1426.1 1769.1Z" class="c"/>
    <text font-family="Arial-BoldMT" font-size="50" transform="matrix(0.618511 0.785776 -0.785776 0.618511 1596.3 1851.7)" class="c">
      <tspan y="45" textLength="108.374">
        
start
      </tspan>
    </text>
        <path d="M1636.1 2012.9C1624.4 1990.9 1591.3 1933.9 1541.9 1886.9" class="g"/>
        <path d="M1601.6 2005L1636.3 2020.1 1640.8 2022 1641.8 2017.2 1649.8 1980.2C1650.2 1978 1648.8 1975.9 1646.7 1975.4 1644.5 1975 1642.4 1976.4 1641.9 1978.5L1634 2015.6 1639.5 2012.7 1604.8 1997.6C1602.7 1996.8 1600.4 1997.7 1599.5 1999.7 1598.6 2001.7 1599.5 2004.1 1601.6 2005Z" class="c"/>
    <path d="M1149.4 2029.4C1017.9 2029.4 915.7 2134.8 911.5 2257.1 911.5 2257.1 913.5 2257.1 915.5 2257.1 917.5 2257.1 919.5 2257.1 919.5 2257.1 926.4 2138.7 1022.3 2037.4 1149.4 2037.4 1276.5 2037.4 1379.5 2140.4 1379.5 2267.3 1379.5 2394.3 1276.5 2497.2 1149.4 2497.2 1028.7 2497.2 929.2 2404.1 920.1 2285.2L937.1 2305C938.5 2306.7 941 2306.9 942.7 2305.5 944.4 2304 944.6 2301.5 943.1 2299.8L915.3 2267.3 888.9 2301C887.6 2302.7 887.9 2305.3 889.6 2306.6 891.4 2308 893.9 2307.7 895.3 2305.9L912 2284.5C920.9 2408.2 1024.1 2505.2 1149.4 2505.2 1280.9 2505.2 1387.5 2398.7 1387.5 2267.3 1387.5 2135.9 1280.9 2029.4 1149.4 2029.4Z" class="c"/>
        <path d="M907 146.1C935.2 137.5 1022.2 114.5 1138.4 114.4" class="g"/>
        <path d="M920.5 113.3L899.8 145.1 897.2 149.2 901.7 151 936.9 165C939 165.8 941.3 164.8 942.1 162.7 942.9 160.7 941.9 158.3 939.9 157.5L904.6 143.6 906.5 149.5 927.2 117.7C928.4 115.8 927.9 113.4 926 112.2 924.2 111 921.7 111.5 920.5 113.3Z" class="c"/>
        <path d="M1685.3 3152.5C1710.1 3136.7 1784.5 3086.4 1869.8 3000.2" class="g"/>
        <path d="M1690.4 3117.4L1678.1 3153.3 1676.5 3157.9 1681.3 3158.5 1718.9 3163.5C1721.1 3163.8 1723.1 3162.3 1723.4 3160.1 1723.7 3157.9 1722.1 3155.9 1720 3155.6L1682.4 3150.6 1685.6 3155.9 1698 3120C1698.7 3118 1697.6 3115.7 1695.5 3115 1693.4 3114.2 1691.2 3115.3 1690.4 3117.4Z" class="c"/>
    <path d="M1149.4 768.7C1057.3 768.7 987.1 841.6 982.9 925L986.9 925 990.9 925C996.2 846.2 1061.7 776.7 1149.4 776.7 1237.1 776.7 1308.3 847.6 1308.3 935.1 1308.3 1022.6 1237.1 1093.5 1149.4 1093.5 1068.2 1093.5 1000.9 1032.5 991.8 953.3L1008.7 972.7C1010.1 974.3 1012.7 974.5 1014.3 973 1016 971.6 1016.1 969 1014.7 967.4L986.6 935.1 960.5 969.1C959.2 970.8 959.5 973.3 961.3 974.7 963 976 965.5 975.7 966.9 974L983.6 952.1C992.2 1036.4 1063.4 1101.5 1149.4 1101.5 1241.5 1101.5 1316.3 1027 1316.3 935.1 1316.3 843.2 1241.5 768.7 1149.4 768.7Z" class="c"/>
</svg>